<svg width="576" height="512" viewBox="0 0 576 512" fill="none" xmlns="http://www.w3.org/2000/svg">
<path d="M249.6 471.5C260.4 475.3 272 467.4 272 456V78.6C272 74.4 270.4 70.2 267 67.6C247.4 52 202.4 32 144 32C87.5 32 35.1 48.6 9 59.9C3.4 62.3 0 67.9 0 73.9V454.1C0 466 12.8 474.3 24.1 470.6C55.6 460.1 105.5 448 144 448C177.9 448 223 462 249.6 471.5ZM326.4 471.5C353 462 398.1 448 432 448C470.5 448 520.4 460.1 551.9 470.6C563.2 474.4 576 466 576 454.1V73.9C576 67.8 572.6 62.3 567 59.9C540.9 48.6 488.5 32 432 32C373.6 32 328.6 52 309 67.6C305.7 70.2 304 74.4 304 78.6V456C304 467.4 315.7 475.3 326.4 471.5Z" fill="white"/>
</svg>
