<svg width="372" height="583" viewBox="0 0 372 583" fill="none" xmlns="http://www.w3.org/2000/svg">
<rect width="372" height="583" fill="#2F2F2F"/>
<path d="M172.203 272.045C164.963 268.234 150.695 275.597 146.596 282.08C144.77 284.98 144.899 287.071 144.899 288.257V351.705L198.407 385L208.469 379.506V317.715L153.53 286.172C156.479 282.462 163.109 277.937 168.081 279.754L217.015 305.927L217.016 374.762L227.103 369.258V300.424L172.203 272.045Z" fill="white" fill-opacity="0.24"/>
<path d="M125.008 225.512C126.352 225.512 127.44 225.688 128.272 226.04C129.136 226.36 129.808 226.808 130.288 227.384C130.8 227.992 131.168 228.776 131.392 229.736C131.648 230.696 131.776 231.992 131.776 233.624V246.536C131.776 247.88 132 248.792 132.448 249.272C132.928 249.752 133.728 249.992 134.848 249.992V251C134.24 250.968 133.328 250.936 132.112 250.904C130.896 250.84 129.696 250.808 128.512 250.808C127.296 250.808 126.096 250.84 124.912 250.904C123.76 250.936 122.88 250.968 122.272 251V249.992C123.232 249.992 123.904 249.752 124.288 249.272C124.672 248.792 124.864 247.88 124.864 246.536V231.608C124.864 230.808 124.784 230.12 124.624 229.544C124.464 228.936 124.176 228.472 123.76 228.152C123.344 227.8 122.72 227.624 121.888 227.624C121.024 227.624 120.224 227.864 119.488 228.344C118.784 228.824 118.208 229.496 117.76 230.36C117.344 231.192 117.136 232.136 117.136 233.192V246.536C117.136 247.88 117.328 248.792 117.712 249.272C118.128 249.752 118.8 249.992 119.728 249.992V251C119.152 250.968 118.304 250.936 117.184 250.904C116.096 250.84 114.96 250.808 113.776 250.808C112.56 250.808 111.312 250.84 110.032 250.904C108.752 250.936 107.792 250.968 107.152 251V249.992C108.272 249.992 109.056 249.752 109.504 249.272C109.984 248.792 110.224 247.88 110.224 246.536V231.416C110.224 229.976 110 228.92 109.552 228.248C109.136 227.544 108.336 227.192 107.152 227.192V226.184C108.176 226.28 109.168 226.328 110.128 226.328C111.472 226.328 112.72 226.28 113.872 226.184C115.056 226.056 116.144 225.88 117.136 225.656V229.976C117.936 228.344 119.024 227.192 120.4 226.52C121.776 225.848 123.312 225.512 125.008 225.512ZM149.02 225.512C151.356 225.512 153.404 225.944 155.164 226.808C156.924 227.672 158.3 229.064 159.292 230.984C160.284 232.904 160.78 235.448 160.78 238.616C160.78 241.784 160.284 244.328 159.292 246.248C158.3 248.136 156.924 249.512 155.164 250.376C153.404 251.24 151.356 251.672 149.02 251.672C146.748 251.672 144.716 251.24 142.924 250.376C141.164 249.512 139.772 248.136 138.748 246.248C137.756 244.328 137.26 241.784 137.26 238.616C137.26 235.448 137.756 232.904 138.748 230.984C139.772 229.064 141.164 227.672 142.924 226.808C144.716 225.944 146.748 225.512 149.02 225.512ZM149.02 226.472C147.74 226.472 146.668 227.432 145.804 229.352C144.94 231.24 144.508 234.328 144.508 238.616C144.508 242.904 144.94 245.992 145.804 247.88C146.668 249.768 147.74 250.712 149.02 250.712C150.332 250.712 151.404 249.768 152.236 247.88C153.1 245.992 153.532 242.904 153.532 238.616C153.532 234.328 153.1 231.24 152.236 229.352C151.404 227.432 150.332 226.472 149.02 226.472ZM186.352 226.184V227.144C185.744 227.304 185.168 227.688 184.624 228.296C184.08 228.872 183.552 229.864 183.04 231.272L176.032 251.096C175.52 251.064 174.992 251.048 174.448 251.048C173.936 251.048 173.424 251.064 172.912 251.096L164.368 229.88C163.856 228.632 163.344 227.88 162.832 227.624C162.352 227.336 161.936 227.192 161.584 227.192V226.184C162.608 226.248 163.664 226.312 164.752 226.376C165.872 226.408 167.088 226.424 168.4 226.424C169.392 226.424 170.432 226.408 171.52 226.376C172.64 226.312 173.68 226.248 174.64 226.184V227.192C173.968 227.192 173.36 227.224 172.816 227.288C172.304 227.352 171.952 227.56 171.76 227.912C171.568 228.264 171.6 228.888 171.856 229.784L177.472 244.664L176.992 245.336L180.784 234.824C181.392 233.096 181.648 231.688 181.552 230.6C181.456 229.48 181.104 228.648 180.496 228.104C179.888 227.528 179.072 227.208 178.048 227.144V226.184C178.528 226.216 179.04 226.248 179.584 226.28C180.16 226.28 180.704 226.296 181.216 226.328C181.76 226.328 182.24 226.328 182.656 226.328C183.296 226.328 183.968 226.312 184.672 226.28C185.376 226.248 185.936 226.216 186.352 226.184ZM199.224 225.512C202.04 225.512 204.248 226.344 205.848 228.008C207.448 229.672 208.248 232.392 208.248 236.168H192.456L192.36 235.256H202.2C202.232 233.688 202.136 232.248 201.912 230.936C201.688 229.592 201.336 228.52 200.856 227.72C200.376 226.92 199.736 226.52 198.936 226.52C197.816 226.52 196.856 227.224 196.056 228.632C195.288 230.04 194.824 232.376 194.664 235.64L194.808 235.928C194.776 236.312 194.744 236.712 194.712 237.128C194.712 237.544 194.712 237.976 194.712 238.424C194.712 240.632 195.016 242.424 195.624 243.8C196.264 245.176 197.064 246.184 198.023 246.824C198.984 247.432 199.96 247.736 200.952 247.736C201.624 247.736 202.312 247.64 203.016 247.448C203.752 247.224 204.488 246.84 205.224 246.296C205.96 245.72 206.648 244.92 207.288 243.896L208.152 244.184C207.768 245.4 207.16 246.584 206.328 247.736C205.496 248.888 204.44 249.832 203.16 250.568C201.88 251.304 200.344 251.672 198.552 251.672C196.376 251.672 194.456 251.208 192.792 250.28C191.128 249.352 189.816 247.944 188.855 246.056C187.928 244.168 187.464 241.768 187.464 238.856C187.464 235.88 187.96 233.4 188.952 231.416C189.976 229.432 191.368 227.96 193.128 227C194.92 226.008 196.952 225.512 199.224 225.512ZM220.819 213.416V246.536C220.819 247.88 221.043 248.792 221.491 249.272C221.971 249.752 222.771 249.992 223.891 249.992V251C223.283 250.968 222.371 250.936 221.155 250.904C219.939 250.84 218.707 250.808 217.459 250.808C216.211 250.808 214.947 250.84 213.667 250.904C212.419 250.936 211.475 250.968 210.835 251V249.992C211.955 249.992 212.739 249.752 213.187 249.272C213.667 248.792 213.907 247.88 213.907 246.536V219.176C213.907 217.736 213.683 216.68 213.235 216.008C212.819 215.304 212.019 214.952 210.835 214.952V213.944C211.859 214.04 212.851 214.088 213.811 214.088C215.123 214.088 216.371 214.04 217.555 213.944C218.739 213.816 219.827 213.64 220.819 213.416ZM235.677 218.312V226.184H241.341V227.144H235.677V246.536C235.677 247.496 235.853 248.184 236.205 248.6C236.557 248.984 237.085 249.176 237.789 249.176C238.365 249.176 238.941 248.968 239.517 248.552C240.093 248.104 240.605 247.352 241.053 246.296L241.869 246.728C241.357 248.168 240.573 249.352 239.517 250.28C238.493 251.208 237.085 251.672 235.293 251.672C234.237 251.672 233.309 251.528 232.509 251.24C231.709 250.984 231.037 250.584 230.493 250.04C229.789 249.336 229.325 248.472 229.101 247.448C228.877 246.392 228.765 245.032 228.765 243.368V227.144H224.733V226.184H228.765V219.848C230.109 219.848 231.341 219.736 232.461 219.512C233.613 219.256 234.685 218.856 235.677 218.312ZM266.28 226.184V227.144C265.672 227.304 265.096 227.688 264.552 228.296C264.008 228.872 263.48 229.864 262.968 231.272L256.2 250.28L254.424 253.64L243.96 229.88C243.416 228.632 242.872 227.88 242.328 227.624C241.816 227.336 241.368 227.192 240.984 227.192V226.184C242.04 226.28 243.128 226.36 244.248 226.424C245.4 226.456 246.504 226.472 247.56 226.472C248.872 226.472 250.072 226.44 251.16 226.376C252.248 226.312 253.272 226.248 254.232 226.184V227.192C253.592 227.192 252.984 227.24 252.408 227.336C251.864 227.4 251.48 227.624 251.256 228.008C251.064 228.36 251.16 228.984 251.544 229.88L257.592 244.472L257.16 244.76L260.712 234.824C261.32 233.096 261.576 231.688 261.48 230.6C261.384 229.48 261.032 228.648 260.424 228.104C259.816 227.528 258.984 227.208 257.928 227.144V226.184C258.44 226.216 258.968 226.248 259.512 226.28C260.056 226.28 260.6 226.296 261.144 226.328C261.688 226.328 262.168 226.328 262.584 226.328C263.224 226.328 263.896 226.312 264.6 226.28C265.304 226.248 265.864 226.216 266.28 226.184ZM256.2 250.28L254.376 255.416C254.056 256.216 253.72 256.888 253.368 257.432C253.048 258.008 252.68 258.472 252.264 258.824C251.816 259.208 251.24 259.496 250.536 259.688C249.832 259.912 249.016 260.024 248.088 260.024C247.32 260.024 246.52 259.896 245.688 259.64C244.888 259.384 244.216 258.968 243.672 258.392C243.128 257.816 242.856 257.08 242.856 256.184C242.856 255.192 243.208 254.392 243.912 253.784C244.616 253.208 245.544 252.92 246.696 252.92C247.752 252.92 248.616 253.176 249.288 253.688C249.96 254.2 250.296 254.952 250.296 255.944C250.296 256.584 250.088 257.192 249.672 257.768C249.288 258.344 248.696 258.776 247.896 259.064C248.056 259.096 248.248 259.112 248.472 259.112C248.696 259.112 248.872 259.112 249 259.112C249.96 259.112 250.808 258.808 251.544 258.2C252.28 257.592 252.888 256.632 253.368 255.32L255.048 250.376L256.2 250.28Z" fill="white" fill-opacity="0.24"/>
</svg>
